<svg xmlns="http://www.w3.org/2000/svg" width="1200" height="240" viewBox="0 0 1200 240">
<rect width="1200" height="240" fill="#4a2f1f"/>

<defs><linearGradient id="g" x2="0" y2="1"><stop stop-color="#332016"/><stop offset="1" stop-color="#6d4a2d"/></linearGradient></defs>
<rect x="35" y="18" width="1130" height="190" rx="10" fill="url(#g)" stroke="#b48b4e" stroke-width="4"/>
<rect x="70" y="48" width="270" height="115" fill="#4a2d1f"/><rect x="860" y="48" width="270" height="115" fill="#4a2d1f"/>
<g stroke="#251810" stroke-width="2">
<rect x="90" y="78" width="22" height="76" fill="#7c303b"/><rect x="118" y="66" width="20" height="88" fill="#31564f"/>
<rect x="143" y="84" width="24" height="70" fill="#8e6b3f"/><rect x="175" y="72" width="18" height="82" fill="#495172"/>
<rect x="200" y="60" width="24" height="94" fill="#6f3b2f"/><rect x="232" y="76" width="20" height="78" fill="#4b6a5a"/>
<rect x="265" y="68" width="23" height="86" fill="#8b6336"/><rect x="298" y="82" width="22" height="72" fill="#5b3c55"/>
<rect x="880" y="75" width="21" height="79" fill="#6f3b2f"/><rect x="907" y="63" width="24" height="91" fill="#3e5c55"/>
<rect x="939" y="82" width="19" height="72" fill="#8f6c3f"/><rect x="965" y="68" width="23" height="86" fill="#4f5571"/>
<rect x="996" y="58" width="22" height="96" fill="#78323b"/><rect x="1025" y="74" width="20" height="80" fill="#4c6858"/>
<rect x="1053" y="64" width="24" height="90" fill="#8b6538"/><rect x="1085" y="80" width="20" height="74" fill="#5d4055"/>
</g>
<circle cx="600" cy="104" r="58" fill="#efe1b7" stroke="#a77e3e" stroke-width="4"/>
<path d="M600 54v100M550 104h100" stroke="#a77e3e" stroke-width="3" opacity=".45"/>
<text x="600" y="192" text-anchor="middle" font-family="Georgia,serif" font-size="22" fill="#f1dfb6">STUDIUM • DISCIPLINA • SAPIENTIA</text>

</svg>
